<?xml version="1.0" encoding="utf-8"?>
<!-- Generator: Adobe Illustrator 28.0.0, SVG Export Plug-In . SVG Version: 6.00 Build 0)  -->
<svg version="1.1" id="Layer_1" xmlns="http://www.w3.org/2000/svg" xmlns:xlink="http://www.w3.org/1999/xlink" x="0px" y="0px"
	 viewBox="0 0 1024 1024" style="enable-background:new 0 0 1024 1024;" xml:space="preserve">
<style type="text/css">
	.st0{fill:#0E1514;}
	.st1{fill:#179B95;}
	.st2{fill:#E1CB36;}
</style>
<path class="st0" d="M1017.46,230.41v563.94c0,122.14-99.02,221.16-221.16,221.16H228.48c-122.11,0-221.13-99.02-221.13-221.16
	V230.41c0-122.14,99.02-221.16,221.13-221.16H796.3C918.44,9.25,1017.46,108.27,1017.46,230.41z"/>
<g>
	<g>
		<path class="st1" d="M394.71,374.89c0,10.44-2.82,20.21-7.76,28.59c-9.79,16.76-28.03,28.03-48.85,28.03
			c-31.26,0-56.62-25.35-56.62-56.62s25.35-56.62,56.62-56.62c20.12,0,37.76,10.5,47.79,26.29
			C391.5,353.33,394.71,363.72,394.71,374.89z"/>
		<path class="st1" d="M470.83,204.54c-22.47,15.65-41.56,35.76-56.06,59.03c-7.38-1.32-14.97-2-22.71-2
			c-71.38,0-129.24,57.88-129.24,129.26c0,69.03,54.12,125.44,122.26,129.03c-13.82,20.94-23.85,44.59-29.09,69.97
			c-94.47-17-166.15-99.62-166.15-199c0-111.68,90.53-202.21,202.21-202.21C420,188.63,446.62,194.31,470.83,204.54z"/>
	</g>
	<g>
		<path class="st1" d="M630.1,649.86c0.05-10.44,2.92-20.19,7.9-28.55c9.87-16.72,28.16-27.89,48.99-27.79
			c31.26,0.15,56.49,25.63,56.34,56.89c-0.15,31.26-25.63,56.49-56.89,56.34c-20.12-0.1-37.71-10.68-47.67-26.52
			C633.2,671.43,630.04,661.03,630.1,649.86z"/>
		<path class="st1" d="M553.16,819.84c22.55-15.54,41.73-35.56,56.34-58.76c7.38,1.36,14.96,2.07,22.7,2.11
			c71.38,0.35,129.51-57.26,129.86-128.64c0.33-69.03-53.51-125.7-121.64-129.62c13.92-20.87,24.07-44.47,29.43-69.83
			c94.39,17.46,165.66,100.42,165.18,199.8c-0.54,111.67-91.51,201.77-203.18,201.23C603.9,836,577.31,830.19,553.16,819.84z"/>
	</g>
	<g>
		<path class="st2" d="M374.52,629.33c10.44,0.07,20.19,2.97,28.53,7.97c16.69,9.91,27.83,28.23,27.68,49.05
			c-0.22,31.26-25.75,56.44-57.02,56.22c-31.26-0.22-56.44-25.75-56.22-57.02c0.14-20.12,10.77-37.69,26.63-47.61
			C352.94,632.39,363.34,629.26,374.52,629.33z"/>
		<path class="st2" d="M204.71,552.01c15.49,22.58,35.47,41.81,58.63,56.48c-1.38,7.37-2.11,14.96-2.16,22.69
			c-0.51,71.38,56.97,129.64,128.35,130.15c69.03,0.49,125.82-53.23,129.89-121.35c20.84,13.97,44.42,24.17,69.76,29.58
			C571.51,763.91,488.39,835,389.01,834.29c-111.67-0.79-201.56-91.96-200.77-203.63C188.44,602.72,194.3,576.14,204.71,552.01z"/>
	</g>
	<g>
		<path class="st2" d="M650.34,393.59c-10.44,0.13-20.24-2.57-28.68-7.41c-16.88-9.59-28.37-27.68-28.63-48.5
			c-0.39-31.26,24.65-56.93,55.91-57.31c31.26-0.39,56.93,24.65,57.31,55.91c0.25,20.12-10.03,37.89-25.7,48.12
			C671.86,390.12,661.52,393.45,650.34,393.59z"/>
		<path class="st2" d="M821.62,467.59c-15.92-22.28-36.28-41.11-59.72-55.32c1.23-7.4,1.81-14.99,1.72-22.73
			c-0.88-71.38-59.48-128.51-130.85-127.62c-69.02,0.85-124.76,55.67-127.51,123.85c-21.11-13.56-44.88-23.3-70.33-28.22
			c15.83-94.67,97.55-167.37,196.93-168.6c111.67-1.38,203.31,88.02,204.69,199.69C836.9,416.58,831.56,443.26,821.62,467.59z"/>
	</g>
</g>
</svg>
