<svg enable-background="new 0 0 1024 1024" viewBox="0 0 1024 1024" xmlns="http://www.w3.org/2000/svg"><path d="m1017.46 230.41v563.94c0 122.14-99.02 221.16-221.16 221.16h-567.82c-122.11 0-221.13-99.02-221.13-221.16v-563.94c0-122.14 99.02-221.16 221.13-221.16h567.82c122.14 0 221.16 99.02 221.16 221.16z" fill="#f4fbf9"/><g fill="#179b95"><path d="m394.71 374.89c0 10.44-2.82 20.21-7.76 28.59-9.79 16.76-28.03 28.03-48.85 28.03-31.26 0-56.62-25.35-56.62-56.62s25.35-56.62 56.62-56.62c20.12 0 37.76 10.5 47.79 26.29 5.61 8.77 8.82 19.16 8.82 30.33z"/><path d="m470.83 204.54c-22.47 15.65-41.56 35.76-56.06 59.03-7.38-1.32-14.97-2-22.71-2-71.38 0-129.24 57.88-129.24 129.26 0 69.03 54.12 125.44 122.26 129.03-13.82 20.94-23.85 44.59-29.09 69.97-94.47-17-166.15-99.62-166.15-199 0-111.68 90.53-202.21 202.21-202.21 27.95.01 54.57 5.69 78.78 15.92z"/><path d="m630.1 649.86c.05-10.44 2.92-20.19 7.9-28.55 9.87-16.72 28.16-27.89 48.99-27.79 31.26.15 56.49 25.63 56.34 56.89s-25.63 56.49-56.89 56.34c-20.12-.1-37.71-10.68-47.67-26.52-5.57-8.8-8.73-19.2-8.67-30.37z"/><path d="m553.16 819.84c22.55-15.54 41.73-35.56 56.34-58.76 7.38 1.36 14.96 2.07 22.7 2.11 71.38.35 129.51-57.26 129.86-128.64.33-69.03-53.51-125.7-121.64-129.62 13.92-20.87 24.07-44.47 29.43-69.83 94.39 17.46 165.66 100.42 165.18 199.8-.54 111.67-91.51 201.77-203.18 201.23-27.95-.13-54.54-5.94-78.69-16.29z"/></g><path d="m374.52 629.33c10.44.07 20.19 2.97 28.53 7.97 16.69 9.91 27.83 28.23 27.68 49.05-.22 31.26-25.75 56.44-57.02 56.22-31.26-.22-56.44-25.75-56.22-57.02.14-20.12 10.77-37.69 26.63-47.61 8.82-5.55 19.22-8.68 30.4-8.61z" fill="#e1cb36"/><path d="m204.71 552.01c15.49 22.58 35.47 41.81 58.63 56.48-1.38 7.37-2.11 14.96-2.16 22.69-.51 71.38 56.97 129.64 128.35 130.15 69.03.49 125.82-53.23 129.89-121.35 20.84 13.97 44.42 24.17 69.76 29.58-17.67 94.35-100.79 165.44-200.17 164.73-111.67-.79-201.56-91.96-200.77-203.63.2-27.94 6.06-54.52 16.47-78.65z" fill="#e1cb36"/><path d="m650.34 393.59c-10.44.13-20.24-2.57-28.68-7.41-16.88-9.59-28.37-27.68-28.63-48.5-.39-31.26 24.65-56.93 55.91-57.31 31.26-.39 56.93 24.65 57.31 55.91.25 20.12-10.03 37.89-25.7 48.12-8.69 5.72-19.03 9.05-30.21 9.19z" fill="#e1cb36"/><path d="m821.62 467.59c-15.92-22.28-36.28-41.11-59.72-55.32 1.23-7.4 1.81-14.99 1.72-22.73-.88-71.38-59.48-128.51-130.85-127.62-69.02.85-124.76 55.67-127.51 123.85-21.11-13.56-44.88-23.3-70.33-28.22 15.83-94.67 97.55-167.37 196.93-168.6 111.67-1.38 203.31 88.02 204.69 199.69.35 27.94-4.99 54.62-14.93 78.95z" fill="#e1cb36"/></svg>